<svg id="Layer_1" data-name="Layer 1" xmlns="http://www.w3.org/2000/svg" viewBox="0 0 122.88 122.88"><defs><style>.cls-1{fill:#e72227;}.cls-2{fill:#262626;}</style></defs><title>power</title><path class="cls-1" d="M61.44,0A61.46,61.46,0,1,1,18,18,61.25,61.25,0,0,1,61.44,0ZM96.75,26.13a49.93,49.93,0,1,0,14.63,35.31A49.76,49.76,0,0,0,96.75,26.13Z"/><path class="cls-2" d="M69.6,51.38h11A2.9,2.9,0,0,1,83,55.89L56.78,100.67a2.89,2.89,0,0,1-5.3-2.07l3.87-27.48-13.05.22a2.88,2.88,0,0,1-2.93-2.83,3,3,0,0,1,.4-1.51L65.59,22.23a2.89,2.89,0,0,1,5.34,1.87L69.6,51.38Z"/></svg>